<svg width="140" height="25" viewBox="0 0 140 25" fill="none" xmlns="http://www.w3.org/2000/svg">
<g clip-path="url(#clip0_663_829)">
<mask id="mask0_663_829" style="mask-type:luminance" maskUnits="userSpaceOnUse" x="0" y="0" width="24" height="25">
<path d="M0 0.5H24V24.5H0V0.5Z" fill="white"/>
</mask>
<g mask="url(#mask0_663_829)">
<path d="M23.937 9.70602C23.8602 9.4682 23.7152 9.25824 23.5199 9.10228C23.3247 8.94633 23.0879 8.85129 22.839 8.82902L15.912 8.19902L13.173 1.78902C13.0747 1.55939 12.9111 1.36367 12.7026 1.22612C12.4941 1.08858 12.2498 1.01526 12 1.01526C11.7502 1.01526 11.5059 1.08858 11.2974 1.22612C11.0888 1.36367 10.9253 1.55939 10.827 1.78902L8.08797 8.20002L1.15997 8.83002C0.910848 8.85214 0.673734 8.94704 0.478142 9.10291C0.282549 9.25877 0.137118 9.46872 0.0599499 9.70662C-0.0172182 9.94452 -0.0227146 10.1999 0.0441447 10.4409C0.111004 10.6819 0.247266 10.8979 0.43597 11.062L5.67197 15.654L4.12797 22.455C4.07246 22.6985 4.08965 22.9529 4.17743 23.1867C4.2652 23.4204 4.41969 23.6233 4.62173 23.77C4.82376 23.9168 5.06444 24.001 5.31389 24.0122C5.56335 24.0234 5.8106 23.9611 6.02497 23.833L12 20.262L17.973 23.832C18.1874 23.9599 18.4347 24.0221 18.6841 24.0108C18.9335 23.9995 19.1742 23.9154 19.3762 23.7687C19.5783 23.622 19.7328 23.4192 19.8208 23.1855C19.9087 22.9519 19.9262 22.6975 19.871 22.454L18.327 15.653L23.563 11.062C23.948 10.725 24.096 10.192 23.937 9.70602Z" fill="#FB9F33"/>
</g>
</g>
<g clip-path="url(#clip1_663_829)">
<mask id="mask1_663_829" style="mask-type:luminance" maskUnits="userSpaceOnUse" x="29" y="0" width="24" height="25">
<path d="M29 0.5H53V24.5H29V0.5Z" fill="white"/>
</mask>
<g mask="url(#mask1_663_829)">
<path d="M52.937 9.70602C52.8602 9.4682 52.7152 9.25824 52.5199 9.10228C52.3247 8.94633 52.0879 8.85129 51.839 8.82902L44.912 8.19902L42.173 1.78902C42.0747 1.55939 41.9111 1.36367 41.7026 1.22612C41.4941 1.08858 41.2498 1.01526 41 1.01526C40.7502 1.01526 40.5059 1.08858 40.2974 1.22612C40.0888 1.36367 39.9253 1.55939 39.827 1.78902L37.088 8.20002L30.16 8.83002C29.9108 8.85214 29.6737 8.94704 29.4781 9.10291C29.2825 9.25877 29.1371 9.46872 29.0599 9.70662C28.9828 9.94452 28.9773 10.1999 29.0441 10.4409C29.111 10.6819 29.2473 10.8979 29.436 11.062L34.672 15.654L33.128 22.455C33.0725 22.6985 33.0897 22.9529 33.1774 23.1867C33.2652 23.4204 33.4197 23.6233 33.6217 23.77C33.8238 23.9168 34.0644 24.001 34.3139 24.0122C34.5633 24.0234 34.8106 23.9611 35.025 23.833L41 20.262L46.973 23.832C47.1874 23.9599 47.4347 24.0221 47.6841 24.0108C47.9335 23.9995 48.1742 23.9154 48.3762 23.7687C48.5783 23.622 48.7328 23.4192 48.8208 23.1855C48.9087 22.9519 48.9262 22.6975 48.871 22.454L47.327 15.653L52.563 11.062C52.948 10.725 53.096 10.192 52.937 9.70602Z" fill="#FB9F33"/>
</g>
</g>
<g clip-path="url(#clip2_663_829)">
<mask id="mask2_663_829" style="mask-type:luminance" maskUnits="userSpaceOnUse" x="58" y="0" width="24" height="25">
<path d="M58 0.5H82V24.5H58V0.5Z" fill="white"/>
</mask>
<g mask="url(#mask2_663_829)">
<path d="M81.937 9.70602C81.8602 9.4682 81.7152 9.25824 81.5199 9.10228C81.3247 8.94633 81.0879 8.85129 80.839 8.82902L73.912 8.19902L71.173 1.78902C71.0747 1.55939 70.9111 1.36367 70.7026 1.22612C70.4941 1.08858 70.2498 1.01526 70 1.01526C69.7502 1.01526 69.5059 1.08858 69.2974 1.22612C69.0888 1.36367 68.9253 1.55939 68.827 1.78902L66.088 8.20002L59.16 8.83002C58.9108 8.85214 58.6737 8.94704 58.4781 9.10291C58.2825 9.25877 58.1371 9.46872 58.0599 9.70662C57.9828 9.94452 57.9773 10.1999 58.0441 10.4409C58.111 10.6819 58.2473 10.8979 58.436 11.062L63.672 15.654L62.128 22.455C62.0725 22.6985 62.0897 22.9529 62.1774 23.1867C62.2652 23.4204 62.4197 23.6233 62.6217 23.77C62.8238 23.9168 63.0644 24.001 63.3139 24.0122C63.5633 24.0234 63.8106 23.9611 64.025 23.833L70 20.262L75.973 23.832C76.1874 23.9599 76.4347 24.0221 76.6841 24.0108C76.9335 23.9995 77.1742 23.9154 77.3762 23.7687C77.5783 23.622 77.7328 23.4192 77.8208 23.1855C77.9087 22.9519 77.9262 22.6975 77.871 22.454L76.327 15.653L81.563 11.062C81.948 10.725 82.096 10.192 81.937 9.70602Z" fill="#FB9F33"/>
</g>
</g>
<g clip-path="url(#clip3_663_829)">
<mask id="mask3_663_829" style="mask-type:luminance" maskUnits="userSpaceOnUse" x="87" y="0" width="24" height="25">
<path d="M87 0.5H111V24.5H87V0.5Z" fill="white"/>
</mask>
<g mask="url(#mask3_663_829)">
<path d="M110.937 9.70602C110.86 9.4682 110.715 9.25824 110.52 9.10228C110.325 8.94633 110.088 8.85129 109.839 8.82902L102.912 8.19902L100.173 1.78902C100.075 1.55939 99.9112 1.36367 99.7026 1.22612C99.4941 1.08858 99.2498 1.01526 99 1.01526C98.7502 1.01526 98.5059 1.08858 98.2974 1.22612C98.0889 1.36367 97.9254 1.55939 97.827 1.78902L95.088 8.20002L88.16 8.83002C87.9109 8.85214 87.6738 8.94704 87.4782 9.10291C87.2826 9.25877 87.1372 9.46872 87.06 9.70662C86.9828 9.94452 86.9773 10.1999 87.0442 10.4409C87.1111 10.6819 87.2473 10.8979 87.436 11.062L92.672 15.654L91.128 22.455C91.0725 22.6985 91.0897 22.9529 91.1775 23.1867C91.2653 23.4204 91.4198 23.6233 91.6218 23.77C91.8238 23.9168 92.0645 24.001 92.314 24.0122C92.5634 24.0234 92.8107 23.9611 93.025 23.833L99 20.262L104.973 23.832C105.187 23.9599 105.435 24.0221 105.684 24.0108C105.934 23.9995 106.174 23.9154 106.376 23.7687C106.578 23.622 106.733 23.4192 106.821 23.1855C106.909 22.9519 106.926 22.6975 106.871 22.454L105.327 15.653L110.563 11.062C110.948 10.725 111.096 10.192 110.937 9.70602Z" fill="#FB9F33"/>
</g>
</g>
<g clip-path="url(#clip4_663_829)">
<mask id="mask4_663_829" style="mask-type:luminance" maskUnits="userSpaceOnUse" x="116" y="0" width="24" height="25">
<path d="M116 0.5H140V24.5H116V0.5Z" fill="white"/>
</mask>
<g mask="url(#mask4_663_829)">
<path d="M139.937 9.70602C139.86 9.4682 139.715 9.25824 139.52 9.10228C139.325 8.94633 139.088 8.85129 138.839 8.82902L131.912 8.19902L129.173 1.78902C129.075 1.55939 128.911 1.36367 128.703 1.22612C128.494 1.08858 128.25 1.01526 128 1.01526C127.75 1.01526 127.506 1.08858 127.297 1.22612C127.089 1.36367 126.925 1.55939 126.827 1.78902L124.088 8.20002L117.16 8.83002C116.911 8.85214 116.674 8.94704 116.478 9.10291C116.283 9.25877 116.137 9.46872 116.06 9.70662C115.983 9.94452 115.977 10.1999 116.044 10.4409C116.111 10.6819 116.247 10.8979 116.436 11.062L121.672 15.654L120.128 22.455C120.073 22.6985 120.09 22.9529 120.177 23.1867C120.265 23.4204 120.42 23.6233 120.622 23.77C120.824 23.9168 121.064 24.001 121.314 24.0122C121.563 24.0234 121.811 23.9611 122.025 23.833L128 20.262L133.973 23.832C134.187 23.9599 134.435 24.0221 134.684 24.0108C134.934 23.9995 135.174 23.9154 135.376 23.7687C135.578 23.622 135.733 23.4192 135.821 23.1855C135.909 22.9519 135.926 22.6975 135.871 22.454L134.327 15.653L139.563 11.062C139.948 10.725 140.096 10.192 139.937 9.70602Z" fill="#FB9F33"/>
</g>
</g>
<defs>
<clipPath id="clip0_663_829">
<rect width="24" height="24" fill="white" transform="translate(0 0.5)"/>
</clipPath>
<clipPath id="clip1_663_829">
<rect width="24" height="24" fill="white" transform="translate(29 0.5)"/>
</clipPath>
<clipPath id="clip2_663_829">
<rect width="24" height="24" fill="white" transform="translate(58 0.5)"/>
</clipPath>
<clipPath id="clip3_663_829">
<rect width="24" height="24" fill="white" transform="translate(87 0.5)"/>
</clipPath>
<clipPath id="clip4_663_829">
<rect width="24" height="24" fill="white" transform="translate(116 0.5)"/>
</clipPath>
</defs>
</svg>
